<mxfile host="65bd71144e">
    <diagram id="8NIkFlQ_yWduVD87CZPu" name="Page-1">
        <mxGraphModel dx="534" dy="114" grid="1" gridSize="10" guides="1" tooltips="1" connect="1" arrows="1" fold="1" page="0" pageScale="1" pageWidth="850" pageHeight="1100" math="0" shadow="0">
            <root>
                <mxCell id="0"/>
                <mxCell id="1" parent="0"/>
                <mxCell id="107" style="html=1;entryX=0.5;entryY=0;entryDx=0;entryDy=0;fontSize=18;fontColor=#00CC00;startArrow=none;startFill=0;endArrow=none;endFill=0;elbow=vertical;" parent="1" source="56" target="57" edge="1">
                    <mxGeometry relative="1" as="geometry"/>
                </mxCell>
                <mxCell id="56" value="ROOT" style="rounded=0;whiteSpace=wrap;html=1;fillColor=none;" parent="1" vertex="1">
                    <mxGeometry x="620" y="110" width="120" height="40" as="geometry"/>
                </mxCell>
                <mxCell id="58" style="edgeStyle=elbowEdgeStyle;elbow=vertical;html=1;endArrow=none;endFill=0;entryX=0;entryY=0.559;entryDx=0;entryDy=0;entryPerimeter=0;" parent="1" source="57" target="89" edge="1">
                    <mxGeometry relative="1" as="geometry">
                        <mxPoint x="1020" y="240" as="targetPoint"/>
                        <Array as="points">
                            <mxPoint x="680" y="260"/>
                            <mxPoint x="870" y="240"/>
                            <mxPoint x="600" y="240"/>
                        </Array>
                    </mxGeometry>
                </mxCell>
                <mxCell id="59" style="edgeStyle=elbowEdgeStyle;elbow=vertical;html=1;endArrow=none;endFill=0;exitX=0.5;exitY=1;exitDx=0;exitDy=0;" parent="1" source="57" target="60" edge="1">
                    <mxGeometry relative="1" as="geometry">
                        <mxPoint x="400" y="270" as="targetPoint"/>
                        <Array as="points">
                            <mxPoint x="460" y="260"/>
                            <mxPoint x="590" y="240"/>
                            <mxPoint x="600" y="240"/>
                            <mxPoint x="670" y="240"/>
                            <mxPoint x="620" y="230"/>
                        </Array>
                    </mxGeometry>
                </mxCell>
                <mxCell id="108" style="edgeStyle=none;html=1;fontSize=18;fontColor=#00CC00;startArrow=none;startFill=0;endArrow=none;endFill=0;elbow=vertical;" parent="1" source="57" edge="1">
                    <mxGeometry relative="1" as="geometry">
                        <mxPoint x="680" y="520" as="targetPoint"/>
                    </mxGeometry>
                </mxCell>
                <mxCell id="57" value="AppComponent" style="rounded=0;whiteSpace=wrap;html=1;fillColor=none;" parent="1" vertex="1">
                    <mxGeometry x="600" y="170" width="160" height="40" as="geometry"/>
                </mxCell>
                <mxCell id="60" value="&lt;b&gt;&lt;font color=&quot;#43a15a&quot; style=&quot;font-size: 18px;&quot;&gt;Public Module&lt;/font&gt;&lt;/b&gt;" style="rounded=0;whiteSpace=wrap;html=1;fillColor=none;container=1;movableLabel=1;strokeColor=#43a15a;" parent="1" vertex="1">
                    <mxGeometry x="70" y="300" width="350" height="180" as="geometry">
                        <mxPoint x="-11" y="63" as="offset"/>
                    </mxGeometry>
                </mxCell>
                <mxCell id="68" style="edgeStyle=elbowEdgeStyle;elbow=vertical;html=1;entryX=0.5;entryY=0;entryDx=0;entryDy=0;endArrow=none;endFill=0;exitX=0.546;exitY=1.019;exitDx=0;exitDy=0;exitPerimeter=0;" parent="60" source="61" target="73" edge="1">
                    <mxGeometry relative="1" as="geometry">
                        <mxPoint x="136.08536036036034" y="55.38399999999997" as="sourcePoint"/>
                        <mxPoint x="28.3743560868561" y="129.72635294117643" as="targetPoint"/>
                        <Array as="points">
                            <mxPoint x="140" y="70"/>
                        </Array>
                    </mxGeometry>
                </mxCell>
                <mxCell id="71" style="edgeStyle=elbowEdgeStyle;elbow=vertical;html=1;endArrow=none;endFill=0;entryX=0.5;entryY=0;entryDx=0;entryDy=0;exitX=0.549;exitY=0.989;exitDx=0;exitDy=0;exitPerimeter=0;" parent="60" source="61" target="82" edge="1">
                    <mxGeometry relative="1" as="geometry">
                        <mxPoint x="168" y="52.94117647058823" as="sourcePoint"/>
                        <Array as="points">
                            <mxPoint x="200" y="70"/>
                            <mxPoint x="245.94594594594594" y="83.07692307692308"/>
                            <mxPoint x="141.8918918918919" y="69.23076923076923"/>
                            <mxPoint x="170.27027027027026" y="96.92307692307692"/>
                            <mxPoint x="225.55555555555557" y="84"/>
                            <mxPoint x="241.11111111111111" y="72"/>
                        </Array>
                    </mxGeometry>
                </mxCell>
                <mxCell id="72" style="elbow=vertical;html=1;entryX=0.5;entryY=0;entryDx=0;entryDy=0;endArrow=none;endFill=0;exitX=0.547;exitY=1.017;exitDx=0;exitDy=0;exitPerimeter=0;" parent="60" source="61" target="81" edge="1">
                    <mxGeometry relative="1" as="geometry">
                        <mxPoint x="160.8108108108108" y="69.23076923076923" as="sourcePoint"/>
                    </mxGeometry>
                </mxCell>
                <mxCell id="61" value="Public Layout(Lading-page)" style="rounded=0;whiteSpace=wrap;html=1;fillColor=none;" parent="60" vertex="1">
                    <mxGeometry x="80" y="10" width="178.15" height="40" as="geometry"/>
                </mxCell>
                <mxCell id="73" value="Home" style="rounded=0;whiteSpace=wrap;html=1;fillColor=none;" parent="60" vertex="1">
                    <mxGeometry x="19.99780203280203" y="91.00235294117647" width="87.5" height="29.999999999999996" as="geometry"/>
                </mxCell>
                <mxCell id="81" value="Tutors" style="rounded=0;whiteSpace=wrap;html=1;fillColor=none;" parent="60" vertex="1">
                    <mxGeometry x="134.25477246477254" y="90.00235294117647" width="87.5" height="29.999999999999996" as="geometry"/>
                </mxCell>
                <mxCell id="82" value="Contact" style="rounded=0;whiteSpace=wrap;html=1;fillColor=none;" parent="60" vertex="1">
                    <mxGeometry x="240.00090821590823" y="90.00235294117647" width="87.5" height="29.999999999999996" as="geometry"/>
                </mxCell>
                <mxCell id="89" value="&lt;b&gt;&lt;font color=&quot;#bd7000&quot; style=&quot;font-size: 18px;&quot;&gt;Auth Module&lt;/font&gt;&lt;/b&gt;" style="rounded=0;whiteSpace=wrap;html=1;fillColor=none;container=1;movableLabel=1;fontColor=#000000;strokeColor=#BD7000;" parent="1" vertex="1">
                    <mxGeometry x="810" y="170" width="350" height="180" as="geometry">
                        <mxPoint x="-112" y="-59" as="offset"/>
                    </mxGeometry>
                </mxCell>
                <mxCell id="94" value="Login" style="rounded=0;whiteSpace=wrap;html=1;fillColor=none;" parent="89" vertex="1">
                    <mxGeometry x="131.24780203280204" y="75.00235294117647" width="87.5" height="29.999999999999996" as="geometry"/>
                </mxCell>
                <mxCell id="95" value="Logout" style="rounded=0;whiteSpace=wrap;html=1;fillColor=none;" parent="89" vertex="1">
                    <mxGeometry x="131.24477246477255" y="130.00235294117647" width="87.5" height="29.999999999999996" as="geometry"/>
                </mxCell>
                <mxCell id="100" style="edgeStyle=orthogonalEdgeStyle;html=1;entryX=0;entryY=0.75;entryDx=0;entryDy=0;fontSize=18;fontColor=#00CC00;startArrow=oval;startFill=1;endArrow=oval;endFill=1;elbow=vertical;" parent="89" source="95" target="103" edge="1">
                    <mxGeometry relative="1" as="geometry">
                        <Array as="points">
                            <mxPoint x="90" y="140"/>
                            <mxPoint x="90" y="43"/>
                            <mxPoint x="131" y="43"/>
                        </Array>
                    </mxGeometry>
                </mxCell>
                <mxCell id="103" value="signup" style="rounded=0;whiteSpace=wrap;html=1;fillColor=none;" parent="89" vertex="1">
                    <mxGeometry x="131.24780203280216" y="20.00235294117647" width="87.5" height="29.999999999999996" as="geometry"/>
                </mxCell>
                <mxCell id="237" value="&lt;b&gt;&lt;font color=&quot;#cc0000&quot; style=&quot;font-size: 16px;&quot;&gt;MySpace Module&lt;/font&gt;&lt;/b&gt;" style="rounded=0;whiteSpace=wrap;html=1;fillColor=none;container=1;movableLabel=1;strokeColor=#CC0000;recursiveResize=0;" parent="1" vertex="1">
                    <mxGeometry x="500" y="430" width="430" height="480" as="geometry">
                        <mxPoint x="115" y="-209" as="offset"/>
                    </mxGeometry>
                </mxCell>
                <mxCell id="238" style="edgeStyle=elbowEdgeStyle;elbow=vertical;html=1;entryX=0.5;entryY=0;entryDx=0;entryDy=0;endArrow=none;endFill=0;exitX=0.546;exitY=0.969;exitDx=0;exitDy=0;exitPerimeter=0;" parent="237" source="241" target="242" edge="1">
                    <mxGeometry relative="1" as="geometry">
                        <mxPoint x="167.19058558558552" y="110.76799999999994" as="sourcePoint"/>
                        <mxPoint x="34.8599231924232" y="259.45270588235286" as="targetPoint"/>
                        <Array as="points">
                            <mxPoint x="150" y="80"/>
                            <mxPoint x="147.42857142857142" y="80"/>
                            <mxPoint x="172" y="140"/>
                        </Array>
                    </mxGeometry>
                </mxCell>
                <mxCell id="239" style="edgeStyle=elbowEdgeStyle;elbow=vertical;html=1;endArrow=none;endFill=0;entryX=0.5;entryY=0;entryDx=0;entryDy=0;exitX=0.549;exitY=0.989;exitDx=0;exitDy=0;exitPerimeter=0;" parent="237" source="241" target="244" edge="1">
                    <mxGeometry relative="1" as="geometry">
                        <mxPoint x="206.39999999999998" y="105.88235294117646" as="sourcePoint"/>
                        <Array as="points">
                            <mxPoint x="258" y="80"/>
                            <mxPoint x="245.7142857142857" y="140"/>
                            <mxPoint x="302.1621621621621" y="166.15384615384616"/>
                            <mxPoint x="174.32432432432432" y="138.46153846153845"/>
                            <mxPoint x="209.18918918918916" y="193.84615384615384"/>
                            <mxPoint x="277.1111111111111" y="168"/>
                            <mxPoint x="296.2222222222222" y="144"/>
                        </Array>
                    </mxGeometry>
                </mxCell>
                <mxCell id="240" style="elbow=vertical;html=1;entryX=0.5;entryY=0;entryDx=0;entryDy=0;endArrow=none;endFill=0;exitX=0.547;exitY=1.017;exitDx=0;exitDy=0;exitPerimeter=0;" parent="237" source="241" target="243" edge="1">
                    <mxGeometry relative="1" as="geometry">
                        <mxPoint x="197.56756756756755" y="138.46153846153845" as="sourcePoint"/>
                    </mxGeometry>
                </mxCell>
                <mxCell id="241" value="MySpace Layout" style="rounded=0;whiteSpace=wrap;html=1;fillColor=none;" parent="237" vertex="1">
                    <mxGeometry x="86" y="20" width="111.02" height="30" as="geometry"/>
                </mxCell>
                <mxCell id="242" value="MySpace&amp;nbsp;" style="rounded=0;whiteSpace=wrap;html=1;fillColor=none;" parent="237" vertex="1">
                    <mxGeometry x="12.29" y="100" width="87.71" height="28" as="geometry"/>
                </mxCell>
                <mxCell id="243" value="User" style="rounded=0;whiteSpace=wrap;html=1;fillColor=none;" parent="237" vertex="1">
                    <mxGeometry x="110" y="100" width="73.63" height="29" as="geometry"/>
                </mxCell>
                <mxCell id="244" value="Tutor" style="rounded=0;whiteSpace=wrap;html=1;fillColor=none;" parent="237" vertex="1">
                    <mxGeometry x="256.77285714285716" y="98" width="107.5" height="30" as="geometry"/>
                </mxCell>
                <mxCell id="245" value="&lt;font style=&quot;font-size: 10px;&quot;&gt;New session&lt;/font&gt;" style="rounded=0;whiteSpace=wrap;html=1;fillColor=none;" parent="237" vertex="1">
                    <mxGeometry x="159.64" y="149" width="80.36" height="20" as="geometry"/>
                </mxCell>
                <mxCell id="246" value="&lt;font style=&quot;font-size: 10px;&quot;&gt;my progress&lt;/font&gt;" style="rounded=0;whiteSpace=wrap;html=1;fillColor=none;" parent="237" vertex="1">
                    <mxGeometry x="159.64" y="177" width="80.36" height="20" as="geometry"/>
                </mxCell>
                <mxCell id="307" style="edgeStyle=none;html=1;entryX=0.326;entryY=0.452;entryDx=0;entryDy=0;entryPerimeter=0;fontSize=10;fontColor=#FFFFFF;startArrow=none;startFill=0;endArrow=none;endFill=0;" parent="237" source="247" target="237" edge="1">
                    <mxGeometry relative="1" as="geometry"/>
                </mxCell>
                <mxCell id="247" value="&lt;font style=&quot;font-size: 10px;&quot;&gt;chat&lt;/font&gt;" style="rounded=0;whiteSpace=wrap;html=1;fillColor=none;" parent="237" vertex="1">
                    <mxGeometry x="159.65" y="207" width="80.35" height="20" as="geometry"/>
                </mxCell>
                <mxCell id="308" style="edgeStyle=none;html=1;entryX=0.326;entryY=0.515;entryDx=0;entryDy=0;entryPerimeter=0;fontSize=10;fontColor=#FFFFFF;startArrow=none;startFill=0;endArrow=none;endFill=0;" parent="237" source="248" edge="1">
                    <mxGeometry relative="1" as="geometry">
                        <mxPoint x="140.17999999999995" y="290.20000000000005" as="targetPoint"/>
                    </mxGeometry>
                </mxCell>
                <mxCell id="248" value="&lt;font style=&quot;font-size: 10px;&quot;&gt;Plan session&lt;/font&gt;" style="rounded=0;whiteSpace=wrap;html=1;fillColor=none;" parent="237" vertex="1">
                    <mxGeometry x="159.64" y="280" width="80.36" height="20" as="geometry"/>
                </mxCell>
                <mxCell id="249" value="&lt;font style=&quot;font-size: 10px;&quot;&gt;Get ressources&lt;/font&gt;" style="rounded=0;whiteSpace=wrap;html=1;fillColor=none;" parent="237" vertex="1">
                    <mxGeometry x="160.87" y="310" width="79.13" height="20" as="geometry"/>
                </mxCell>
                <mxCell id="250" style="edgeStyle=none;html=1;fontSize=9;fontColor=#CC0000;startArrow=none;startFill=0;endArrow=none;endFill=0;exitX=0.405;exitY=0.995;exitDx=0;exitDy=0;exitPerimeter=0;entryX=0.326;entryY=0.946;entryDx=0;entryDy=0;entryPerimeter=0;" parent="237" source="243" target="237" edge="1">
                    <mxGeometry relative="1" as="geometry">
                        <mxPoint x="147" y="346" as="targetPoint"/>
                        <mxPoint x="147" y="130" as="sourcePoint"/>
                        <Array as="points">
                            <mxPoint x="140" y="210"/>
                        </Array>
                    </mxGeometry>
                </mxCell>
                <mxCell id="251" value="&lt;font style=&quot;font-size: 9px;&quot;&gt;team-learning&lt;br&gt;(communicate with other student)&lt;/font&gt;" style="rounded=0;whiteSpace=wrap;html=1;fillColor=none;align=center;" parent="237" vertex="1">
                    <mxGeometry x="159.64" y="340" width="80.5" height="50" as="geometry"/>
                </mxCell>
                <mxCell id="252" style="edgeStyle=none;html=1;fontSize=9;fontColor=#CC0000;startArrow=none;startFill=0;endArrow=none;endFill=0;exitX=0.495;exitY=0.99;exitDx=0;exitDy=0;exitPerimeter=0;entryX=0.721;entryY=0.946;entryDx=0;entryDy=0;entryPerimeter=0;" parent="237" source="244" target="237" edge="1">
                    <mxGeometry relative="1" as="geometry">
                        <mxPoint x="287.5741795300364" y="128" as="sourcePoint"/>
                        <mxPoint x="310" y="310" as="targetPoint"/>
                    </mxGeometry>
                </mxCell>
                <mxCell id="253" value="&lt;font style=&quot;font-size: 10px;&quot;&gt;New tutoring&lt;/font&gt;" style="rounded=0;whiteSpace=wrap;html=1;fillColor=none;" parent="237" vertex="1">
                    <mxGeometry x="330" y="351" width="90" height="20" as="geometry"/>
                </mxCell>
                <mxCell id="254" style="edgeStyle=none;html=1;fontSize=9;fontColor=#CC0000;startArrow=none;startFill=0;endArrow=none;endFill=0;entryX=0.721;entryY=0.838;entryDx=0;entryDy=0;entryPerimeter=0;exitX=-0.001;exitY=0.603;exitDx=0;exitDy=0;exitPerimeter=0;" parent="237" source="253" edge="1">
                    <mxGeometry relative="1" as="geometry">
                        <mxPoint x="310.03" y="363.05999999999995" as="targetPoint"/>
                    </mxGeometry>
                </mxCell>
                <mxCell id="255" value="&lt;font style=&quot;font-size: 10px;&quot;&gt;education-ressources&lt;/font&gt;" style="rounded=0;whiteSpace=wrap;html=1;fillColor=none;" parent="237" vertex="1">
                    <mxGeometry x="330" y="270" width="90" height="30" as="geometry"/>
                </mxCell>
                <mxCell id="256" style="edgeStyle=none;html=1;entryX=0.721;entryY=0.73;entryDx=0;entryDy=0;entryPerimeter=0;fontSize=9;fontColor=#CC0000;startArrow=none;startFill=0;endArrow=none;endFill=0;" parent="237" edge="1">
                    <mxGeometry relative="1" as="geometry">
                        <mxPoint x="330" y="284.39845566257065" as="sourcePoint"/>
                        <mxPoint x="310.03" y="284.1" as="targetPoint"/>
                    </mxGeometry>
                </mxCell>
                <mxCell id="257" value="&lt;font style=&quot;font-size: 10px;&quot;&gt;Plan session&lt;/font&gt;" style="rounded=0;whiteSpace=wrap;html=1;fillColor=none;" parent="237" vertex="1">
                    <mxGeometry x="330" y="384" width="90" height="20" as="geometry"/>
                </mxCell>
                <mxCell id="258" style="edgeStyle=none;html=1;fontSize=9;fontColor=#CC0000;startArrow=none;startFill=0;endArrow=none;endFill=0;entryX=0.721;entryY=0.838;entryDx=0;entryDy=0;entryPerimeter=0;exitX=-0.001;exitY=0.603;exitDx=0;exitDy=0;exitPerimeter=0;" parent="237" source="257" edge="1">
                    <mxGeometry relative="1" as="geometry">
                        <mxPoint x="310.03" y="396.05999999999995" as="targetPoint"/>
                    </mxGeometry>
                </mxCell>
                <mxCell id="259" value="&lt;font style=&quot;font-size: 10px;&quot;&gt;Ask-Questions&lt;/font&gt;" style="rounded=0;whiteSpace=wrap;html=1;fillColor=none;" parent="237" vertex="1">
                    <mxGeometry x="330" y="412" width="90" height="20" as="geometry"/>
                </mxCell>
                <mxCell id="260" style="edgeStyle=none;html=1;fontSize=9;fontColor=#CC0000;startArrow=none;startFill=0;endArrow=none;endFill=0;entryX=0.721;entryY=0.838;entryDx=0;entryDy=0;entryPerimeter=0;exitX=-0.001;exitY=0.603;exitDx=0;exitDy=0;exitPerimeter=0;" parent="237" source="259" edge="1">
                    <mxGeometry relative="1" as="geometry">
                        <mxPoint x="310.03" y="424.05999999999995" as="targetPoint"/>
                    </mxGeometry>
                </mxCell>
                <mxCell id="261" value="&lt;font style=&quot;font-size: 10px;&quot;&gt;Add ressources&lt;/font&gt;" style="rounded=0;whiteSpace=wrap;html=1;fillColor=none;" parent="237" vertex="1">
                    <mxGeometry x="330" y="310" width="90" height="30" as="geometry"/>
                </mxCell>
                <mxCell id="262" style="edgeStyle=none;html=1;entryX=0.721;entryY=0.73;entryDx=0;entryDy=0;entryPerimeter=0;fontSize=9;fontColor=#CC0000;startArrow=none;startFill=0;endArrow=none;endFill=0;" parent="237" edge="1">
                    <mxGeometry relative="1" as="geometry">
                        <mxPoint x="330" y="324.39845566257065" as="sourcePoint"/>
                        <mxPoint x="310.03" y="324.1" as="targetPoint"/>
                    </mxGeometry>
                </mxCell>
                <mxCell id="263" value="&lt;font size=&quot;1&quot;&gt;Profile&lt;/font&gt;" style="rounded=0;whiteSpace=wrap;html=1;fillColor=none;align=center;" parent="237" vertex="1">
                    <mxGeometry x="159.64" y="413" width="80.5" height="30" as="geometry"/>
                </mxCell>
                <mxCell id="264" style="edgeStyle=none;html=1;fontSize=9;fontColor=#CC0000;startArrow=none;startFill=0;endArrow=none;endFill=0;" parent="237" source="263" edge="1">
                    <mxGeometry relative="1" as="geometry">
                        <mxPoint x="140" y="427" as="targetPoint"/>
                    </mxGeometry>
                </mxCell>
                <mxCell id="265" value="&lt;font style=&quot;font-size: 10px;&quot;&gt;Profile&lt;/font&gt;" style="rounded=0;whiteSpace=wrap;html=1;fillColor=none;" parent="237" vertex="1">
                    <mxGeometry x="330" y="440" width="90" height="20" as="geometry"/>
                </mxCell>
                <mxCell id="266" style="edgeStyle=none;html=1;fontSize=9;fontColor=#CC0000;startArrow=none;startFill=0;endArrow=none;endFill=0;entryX=0.721;entryY=0.838;entryDx=0;entryDy=0;entryPerimeter=0;exitX=-0.001;exitY=0.603;exitDx=0;exitDy=0;exitPerimeter=0;" parent="237" source="265" edge="1">
                    <mxGeometry relative="1" as="geometry">
                        <mxPoint x="310.03" y="452.05999999999995" as="targetPoint"/>
                    </mxGeometry>
                </mxCell>
                <mxCell id="267" style="edgeStyle=none;html=1;entryX=0.721;entryY=0.486;entryDx=0;entryDy=0;entryPerimeter=0;fontSize=9;fontColor=#CC0000;startArrow=none;startFill=0;endArrow=none;endFill=0;" parent="237" source="268" edge="1">
                    <mxGeometry relative="1" as="geometry">
                        <mxPoint x="310.03" y="156.81999999999982" as="targetPoint"/>
                    </mxGeometry>
                </mxCell>
                <mxCell id="268" value="&lt;font style=&quot;font-size: 10px;&quot;&gt;my-students&lt;/font&gt;" style="rounded=0;whiteSpace=wrap;html=1;fillColor=none;" parent="237" vertex="1">
                    <mxGeometry x="329" y="147" width="91" height="20" as="geometry"/>
                </mxCell>
                <mxCell id="269" style="edgeStyle=none;html=1;entryX=0.721;entryY=0.568;entryDx=0;entryDy=0;entryPerimeter=0;fontSize=9;fontColor=#CC0000;startArrow=none;startFill=0;endArrow=none;endFill=0;" parent="237" source="270" edge="1">
                    <mxGeometry relative="1" as="geometry">
                        <mxPoint x="310.03" y="187.15999999999985" as="targetPoint"/>
                    </mxGeometry>
                </mxCell>
                <mxCell id="270" value="&lt;span style=&quot;font-size: 10px;&quot;&gt;students-progress&lt;/span&gt;" style="rounded=0;whiteSpace=wrap;html=1;fillColor=none;" parent="237" vertex="1">
                    <mxGeometry x="329" y="177" width="91" height="20" as="geometry"/>
                </mxCell>
                <mxCell id="271" style="edgeStyle=none;html=1;exitX=0;exitY=0.5;exitDx=0;exitDy=0;fontSize=9;fontColor=#CC0000;startArrow=none;startFill=0;endArrow=none;endFill=0;" parent="237" source="272" edge="1">
                    <mxGeometry relative="1" as="geometry">
                        <mxPoint x="310" y="217" as="targetPoint"/>
                    </mxGeometry>
                </mxCell>
                <mxCell id="272" value="&lt;font style=&quot;font-size: 10px;&quot;&gt;chat&lt;/font&gt;" style="rounded=0;whiteSpace=wrap;html=1;fillColor=none;" parent="237" vertex="1">
                    <mxGeometry x="330.5" y="207" width="89.5" height="20" as="geometry"/>
                </mxCell>
                <mxCell id="311" value="&lt;font style=&quot;font-size: 10px;&quot;&gt;My calendar&lt;/font&gt;" style="rounded=0;whiteSpace=wrap;html=1;fillColor=none;" parent="237" vertex="1">
                    <mxGeometry x="159.77999999999997" y="245" width="80.36" height="20" as="geometry"/>
                </mxCell>
                <mxCell id="312" style="edgeStyle=none;html=1;entryX=0.326;entryY=0.515;entryDx=0;entryDy=0;entryPerimeter=0;fontSize=10;fontColor=#FFFFFF;startArrow=none;startFill=0;endArrow=none;endFill=0;" parent="237" source="311" edge="1">
                    <mxGeometry relative="1" as="geometry">
                        <mxPoint x="140.31999999999994" y="255.20000000000005" as="targetPoint"/>
                    </mxGeometry>
                </mxCell>
                <mxCell id="313" value="&lt;font style=&quot;font-size: 10px;&quot;&gt;calendar&lt;/font&gt;" style="rounded=0;whiteSpace=wrap;html=1;fillColor=none;" parent="237" vertex="1">
                    <mxGeometry x="330.5" y="240" width="89.5" height="20" as="geometry"/>
                </mxCell>
                <mxCell id="314" style="edgeStyle=none;html=1;exitX=0;exitY=0.5;exitDx=0;exitDy=0;fontSize=9;fontColor=#CC0000;startArrow=none;startFill=0;endArrow=none;endFill=0;" parent="237" source="313" edge="1">
                    <mxGeometry relative="1" as="geometry">
                        <mxPoint x="309.9999999999998" y="250" as="targetPoint"/>
                    </mxGeometry>
                </mxCell>
                <mxCell id="273" value="&lt;font style=&quot;font-size: 16px;&quot; color=&quot;#00cc00&quot;&gt;&lt;u&gt;&lt;b&gt;Public Module&lt;/b&gt;&lt;/u&gt;&lt;/font&gt;" style="text;strokeColor=none;align=center;fillColor=none;html=1;verticalAlign=middle;whiteSpace=wrap;rounded=0;fontSize=9;fontColor=#CC0000;" parent="1" vertex="1">
                    <mxGeometry x="1240" y="175" width="120" height="30" as="geometry"/>
                </mxCell>
                <mxCell id="274" value="&lt;font style=&quot;font-size: 10px;&quot;&gt;/home&lt;/font&gt;" style="text;strokeColor=none;align=center;fillColor=none;html=1;verticalAlign=middle;whiteSpace=wrap;rounded=0;fontSize=16;fontColor=#00CC00;" parent="1" vertex="1">
                    <mxGeometry x="1270" y="210" width="60" height="15" as="geometry"/>
                </mxCell>
                <mxCell id="276" value="&lt;font style=&quot;font-size: 10px;&quot;&gt;/tutors&lt;/font&gt;" style="text;strokeColor=none;align=center;fillColor=none;html=1;verticalAlign=middle;whiteSpace=wrap;rounded=0;fontSize=16;fontColor=#00CC00;" parent="1" vertex="1">
                    <mxGeometry x="1270" y="229" width="60" height="15" as="geometry"/>
                </mxCell>
                <mxCell id="277" value="&lt;font style=&quot;font-size: 10px;&quot;&gt;/contact&lt;/font&gt;" style="text;strokeColor=none;align=center;fillColor=none;html=1;verticalAlign=middle;whiteSpace=wrap;rounded=0;fontSize=16;fontColor=#00CC00;" parent="1" vertex="1">
                    <mxGeometry x="1272" y="248" width="60" height="18" as="geometry"/>
                </mxCell>
                <mxCell id="280" value="&lt;font style=&quot;font-size: 16px;&quot;&gt;&lt;u&gt;&lt;b&gt;Auth Module&lt;/b&gt;&lt;/u&gt;&lt;/font&gt;" style="text;strokeColor=none;align=center;fillColor=none;html=1;verticalAlign=middle;whiteSpace=wrap;rounded=0;fontSize=9;fontColor=#BD7000;" parent="1" vertex="1">
                    <mxGeometry x="1240" y="280" width="120" height="30" as="geometry"/>
                </mxCell>
                <mxCell id="281" value="&lt;font style=&quot;font-size: 10px;&quot;&gt;/auth/signup&lt;/font&gt;" style="text;strokeColor=none;align=left;fillColor=none;html=1;verticalAlign=middle;whiteSpace=wrap;rounded=0;fontSize=16;fontColor=#BD7000;" parent="1" vertex="1">
                    <mxGeometry x="1270" y="308" width="60" height="15" as="geometry"/>
                </mxCell>
                <mxCell id="282" value="&lt;font style=&quot;font-size: 10px;&quot;&gt;/auth/login&lt;/font&gt;" style="text;strokeColor=none;align=left;fillColor=none;html=1;verticalAlign=middle;whiteSpace=wrap;rounded=0;fontSize=16;fontColor=#BD7000;" parent="1" vertex="1">
                    <mxGeometry x="1270" y="325" width="60" height="16" as="geometry"/>
                </mxCell>
                <mxCell id="283" value="&lt;font style=&quot;font-size: 10px;&quot;&gt;/auth/user-choice&lt;/font&gt;" style="text;strokeColor=none;align=left;fillColor=none;html=1;verticalAlign=middle;whiteSpace=wrap;rounded=0;fontSize=16;fontColor=#BD7000;" parent="1" vertex="1">
                    <mxGeometry x="1269" y="353" width="81" height="18" as="geometry"/>
                </mxCell>
                <mxCell id="284" value="&lt;font style=&quot;font-size: 16px;&quot;&gt;&lt;u&gt;&lt;b&gt;MySpace Module&lt;/b&gt;&lt;/u&gt;&lt;/font&gt;" style="text;strokeColor=none;align=center;fillColor=none;html=1;verticalAlign=middle;whiteSpace=wrap;rounded=0;fontSize=9;fontColor=#CC0000;" parent="1" vertex="1">
                    <mxGeometry x="1240" y="400" width="140" height="30" as="geometry"/>
                </mxCell>
                <mxCell id="288" value="" style="edgeStyle=none;html=1;fontSize=10;fontColor=#CC0000;startArrow=none;startFill=0;endArrow=none;endFill=0;" parent="1" source="285" target="284" edge="1">
                    <mxGeometry relative="1" as="geometry"/>
                </mxCell>
                <mxCell id="285" value="&lt;font style=&quot;font-size: 10px;&quot;&gt;/myspace/dashboard&lt;/font&gt;" style="text;strokeColor=none;align=left;fillColor=none;html=1;verticalAlign=middle;whiteSpace=wrap;rounded=0;fontSize=10;fontColor=#FFFFFF;" parent="1" vertex="1">
                    <mxGeometry x="1270" y="435" width="100" height="15" as="geometry"/>
                </mxCell>
                <mxCell id="286" value="&lt;font style=&quot;font-size: 10px;&quot;&gt;/mysapace/user&lt;/font&gt;" style="text;strokeColor=none;align=left;fillColor=none;html=1;verticalAlign=middle;whiteSpace=wrap;rounded=0;fontSize=10;fontColor=#FFFFFF;" parent="1" vertex="1">
                    <mxGeometry x="1270" y="454" width="80" height="16" as="geometry"/>
                </mxCell>
                <mxCell id="287" value="&lt;span style=&quot;font-size: 10px;&quot;&gt;/myspace/tutor&lt;/span&gt;" style="text;strokeColor=none;align=left;fillColor=none;html=1;verticalAlign=middle;whiteSpace=wrap;rounded=0;fontSize=16;fontColor=#FFFFFF;" parent="1" vertex="1">
                    <mxGeometry x="1271" y="610" width="60" height="18" as="geometry"/>
                </mxCell>
                <mxCell id="289" value="&lt;font style=&quot;font-size: 11px;&quot;&gt;/new-session&lt;/font&gt;" style="text;strokeColor=none;align=left;fillColor=none;html=1;verticalAlign=middle;whiteSpace=wrap;rounded=0;fontSize=11;fontColor=#FFFFFF;" parent="1" vertex="1">
                    <mxGeometry x="1340" y="480" width="70" height="10" as="geometry"/>
                </mxCell>
                <mxCell id="290" value="&lt;span style=&quot;font-size: 10px;&quot;&gt;/my-progress&lt;/span&gt;" style="text;strokeColor=none;align=left;fillColor=none;html=1;verticalAlign=middle;whiteSpace=wrap;rounded=0;fontSize=10;fontColor=#FFFFFF;" parent="1" vertex="1">
                    <mxGeometry x="1340" y="496" width="70" height="12" as="geometry"/>
                </mxCell>
                <mxCell id="291" value="&lt;span style=&quot;font-size: 10px;&quot;&gt;/chat&lt;/span&gt;" style="text;strokeColor=none;align=left;fillColor=none;html=1;verticalAlign=middle;whiteSpace=wrap;rounded=0;fontSize=10;fontColor=#FFFFFF;" parent="1" vertex="1">
                    <mxGeometry x="1340" y="513" width="70" height="10" as="geometry"/>
                </mxCell>
                <mxCell id="292" value="&lt;span style=&quot;font-size: 10px;&quot;&gt;/plan-session&lt;/span&gt;" style="text;strokeColor=none;align=left;fillColor=none;html=1;verticalAlign=middle;whiteSpace=wrap;rounded=0;fontSize=10;fontColor=#FFFFFF;" parent="1" vertex="1">
                    <mxGeometry x="1340" y="550" width="70" height="10" as="geometry"/>
                </mxCell>
                <mxCell id="293" value="&lt;span style=&quot;font-size: 10px;&quot;&gt;/ressources&lt;/span&gt;" style="text;strokeColor=none;align=left;fillColor=none;html=1;verticalAlign=middle;whiteSpace=wrap;rounded=0;fontSize=10;fontColor=#FFFFFF;" parent="1" vertex="1">
                    <mxGeometry x="1340" y="567" width="70" height="10" as="geometry"/>
                </mxCell>
                <mxCell id="294" value="&lt;span style=&quot;font-size: 10px;&quot;&gt;/team-learning&lt;/span&gt;" style="text;strokeColor=none;align=left;fillColor=none;html=1;verticalAlign=middle;whiteSpace=wrap;rounded=0;fontSize=10;fontColor=#FFFFFF;" parent="1" vertex="1">
                    <mxGeometry x="1340" y="585" width="70" height="10" as="geometry"/>
                </mxCell>
                <mxCell id="295" value="&lt;span style=&quot;font-size: 10px;&quot;&gt;/profile&lt;/span&gt;" style="text;strokeColor=none;align=left;fillColor=none;html=1;verticalAlign=middle;whiteSpace=wrap;rounded=0;fontSize=10;fontColor=#FFFFFF;" parent="1" vertex="1">
                    <mxGeometry x="1340" y="601" width="70" height="10" as="geometry"/>
                </mxCell>
                <mxCell id="296" value="&lt;font style=&quot;font-size: 11px;&quot;&gt;/students&lt;/font&gt;" style="text;strokeColor=none;align=left;fillColor=none;html=1;verticalAlign=middle;whiteSpace=wrap;rounded=0;fontSize=11;fontColor=#FFFFFF;" parent="1" vertex="1">
                    <mxGeometry x="1340" y="628" width="90" height="10" as="geometry"/>
                </mxCell>
                <mxCell id="297" value="&lt;span style=&quot;font-size: 10px;&quot;&gt;/chat&lt;/span&gt;" style="text;strokeColor=none;align=left;fillColor=none;html=1;verticalAlign=middle;whiteSpace=wrap;rounded=0;fontSize=10;fontColor=#FFFFFF;" parent="1" vertex="1">
                    <mxGeometry x="1340" y="660" width="70" height="12" as="geometry"/>
                </mxCell>
                <mxCell id="298" value="&lt;span style=&quot;font-size: 10px;&quot;&gt;/tutor-ressources&lt;/span&gt;" style="text;strokeColor=none;align=left;fillColor=none;html=1;verticalAlign=middle;whiteSpace=wrap;rounded=0;fontSize=10;fontColor=#FFFFFF;" parent="1" vertex="1">
                    <mxGeometry x="1340" y="700" width="80" height="10" as="geometry"/>
                </mxCell>
                <mxCell id="299" value="&lt;span style=&quot;font-size: 10px;&quot;&gt;/new-tutoring&lt;/span&gt;" style="text;strokeColor=none;align=left;fillColor=none;html=1;verticalAlign=middle;whiteSpace=wrap;rounded=0;fontSize=10;fontColor=#FFFFFF;" parent="1" vertex="1">
                    <mxGeometry x="1340" y="739" width="70" height="10" as="geometry"/>
                </mxCell>
                <mxCell id="300" value="&lt;span style=&quot;font-size: 10px;&quot;&gt;/plan-session&lt;/span&gt;" style="text;strokeColor=none;align=left;fillColor=none;html=1;verticalAlign=middle;whiteSpace=wrap;rounded=0;fontSize=10;fontColor=#FFFFFF;" parent="1" vertex="1">
                    <mxGeometry x="1340" y="756" width="70" height="10" as="geometry"/>
                </mxCell>
                <mxCell id="301" value="&lt;span style=&quot;font-size: 10px;&quot;&gt;/ask-question&lt;/span&gt;" style="text;strokeColor=none;align=left;fillColor=none;html=1;verticalAlign=middle;whiteSpace=wrap;rounded=0;fontSize=10;fontColor=#FFFFFF;" parent="1" vertex="1">
                    <mxGeometry x="1340" y="774" width="70" height="10" as="geometry"/>
                </mxCell>
                <mxCell id="302" value="&lt;span style=&quot;font-size: 10px;&quot;&gt;/profile&lt;/span&gt;" style="text;strokeColor=none;align=left;fillColor=none;html=1;verticalAlign=middle;whiteSpace=wrap;rounded=0;fontSize=10;fontColor=#FFFFFF;" parent="1" vertex="1">
                    <mxGeometry x="1340" y="790" width="70" height="10" as="geometry"/>
                </mxCell>
                <mxCell id="303" value="&lt;span style=&quot;font-size: 10px;&quot;&gt;/add-ressources&lt;/span&gt;" style="text;strokeColor=none;align=left;fillColor=none;html=1;verticalAlign=middle;whiteSpace=wrap;rounded=0;fontSize=10;fontColor=#FFFFFF;" parent="1" vertex="1">
                    <mxGeometry x="1340" y="719" width="80" height="10" as="geometry"/>
                </mxCell>
                <mxCell id="304" value="&lt;font style=&quot;font-size: 11px;&quot;&gt;/student-progress&lt;/font&gt;" style="text;strokeColor=none;align=left;fillColor=none;html=1;verticalAlign=middle;whiteSpace=wrap;rounded=0;fontSize=11;fontColor=#FFFFFF;" parent="1" vertex="1">
                    <mxGeometry x="1340" y="645" width="90" height="10" as="geometry"/>
                </mxCell>
                <mxCell id="305" style="edgeStyle=none;html=1;fontSize=10;fontColor=#FFFFFF;startArrow=none;startFill=0;endArrow=none;endFill=0;" parent="1" source="245" edge="1">
                    <mxGeometry relative="1" as="geometry">
                        <mxPoint x="640" y="589" as="targetPoint"/>
                    </mxGeometry>
                </mxCell>
                <mxCell id="306" style="edgeStyle=none;html=1;fontSize=10;fontColor=#FFFFFF;startArrow=none;startFill=0;endArrow=none;endFill=0;" parent="1" source="246" edge="1">
                    <mxGeometry relative="1" as="geometry">
                        <mxPoint x="640" y="617" as="targetPoint"/>
                    </mxGeometry>
                </mxCell>
                <mxCell id="309" style="edgeStyle=none;html=1;fontSize=10;fontColor=#FFFFFF;startArrow=none;startFill=0;endArrow=none;endFill=0;" parent="1" source="249" edge="1">
                    <mxGeometry relative="1" as="geometry">
                        <mxPoint x="640" y="750.0000000000001" as="targetPoint"/>
                    </mxGeometry>
                </mxCell>
                <mxCell id="310" style="edgeStyle=none;html=1;fontSize=10;fontColor=#FFFFFF;startArrow=none;startFill=0;endArrow=none;endFill=0;" parent="1" source="251" edge="1">
                    <mxGeometry relative="1" as="geometry">
                        <mxPoint x="640" y="794.9999999999999" as="targetPoint"/>
                    </mxGeometry>
                </mxCell>
                <mxCell id="315" value="&lt;span style=&quot;font-size: 10px;&quot;&gt;calendar&lt;/span&gt;" style="text;strokeColor=none;align=left;fillColor=none;html=1;verticalAlign=middle;whiteSpace=wrap;rounded=0;fontSize=10;fontColor=#FFFFFF;" parent="1" vertex="1">
                    <mxGeometry x="1340" y="530" width="70" height="10" as="geometry"/>
                </mxCell>
                <mxCell id="316" value="&lt;span style=&quot;font-size: 10px;&quot;&gt;/tutor-ressources&lt;/span&gt;" style="text;strokeColor=none;align=left;fillColor=none;html=1;verticalAlign=middle;whiteSpace=wrap;rounded=0;fontSize=10;fontColor=#FFFFFF;" parent="1" vertex="1">
                    <mxGeometry x="1340" y="680" width="80" height="10" as="geometry"/>
                </mxCell>
                <mxCell id="317" value="&lt;font style=&quot;font-size: 10px;&quot;&gt;/auth/lverify-user&lt;/font&gt;" style="text;strokeColor=none;align=left;fillColor=none;html=1;verticalAlign=middle;whiteSpace=wrap;rounded=0;fontSize=16;fontColor=#BD7000;" parent="1" vertex="1">
                    <mxGeometry x="1269" y="340" width="80" height="16" as="geometry"/>
                </mxCell>
                <mxCell id="318" value="&lt;font style=&quot;font-size: 10px;&quot;&gt;/auth/logout&lt;/font&gt;" style="text;strokeColor=none;align=left;fillColor=none;html=1;verticalAlign=middle;whiteSpace=wrap;rounded=0;fontSize=16;fontColor=#BD7000;" vertex="1" parent="1">
                    <mxGeometry x="1269" y="381" width="60" height="18" as="geometry"/>
                </mxCell>
                <mxCell id="319" value="&lt;font style=&quot;font-size: 10px;&quot;&gt;/auth/tutors-form&lt;/font&gt;" style="text;strokeColor=none;align=left;fillColor=none;html=1;verticalAlign=middle;whiteSpace=wrap;rounded=0;fontSize=16;fontColor=#BD7000;" vertex="1" parent="1">
                    <mxGeometry x="1267" y="367" width="81" height="18" as="geometry"/>
                </mxCell>
            </root>
        </mxGraphModel>
    </diagram>
</mxfile>
